<?xml version="1.0" encoding="UTF-8" standalone="no"?>
<!-- Created with Inkscape (http://www.inkscape.org/) -->

<svg
   width="76.347305mm"
   height="76.400658mm"
   viewBox="0 0 76.347306 76.400657"
   version="1.1"
   id="svg1"
   xmlns="http://www.w3.org/2000/svg"
   xmlns:svg="http://www.w3.org/2000/svg">
  <defs
     id="defs1">
    <clipPath
       clipPathUnits="userSpaceOnUse"
       id="clipPath2">
      <path
         d="m 26.237336,46.619443 v 4.907545 h -3.808557 v 9.796139 q 0,1.648482 1.686376,1.648482 0.341065,0 0.947402,-0.07579 0.625286,-0.09474 0.890559,-0.151585 l 0.852663,4.812802 q -1.117936,0.322117 -2.160079,0.435806 -1.042142,0.113689 -1.970596,0.113689 -3.372753,0 -5.115973,-1.572689 -1.74322,-1.591635 -1.74322,-4.623321 V 51.526988 H 13.0116 v -4.907545 h 2.804311 v -5.04018 h 6.612868 v 5.04018 z m 10.156152,9.095063 v 12.088855 h -6.612866 v -28.23259 h 6.48023 v 11.25514 q 0.852662,-2.046391 2.425351,-3.259064 1.591635,-1.212675 4.054882,-1.212675 3.315907,0 5.324401,2.179026 2.008492,2.179024 2.008492,5.779154 V 67.803361 H 43.461112 V 55.600817 q 0,-1.781114 -0.909508,-2.785361 -0.909505,-1.023194 -2.539037,-1.023194 -1.610585,0 -2.614832,1.04214 -1.004247,1.023197 -1.004247,2.880104 z m 18.03854,20.009138 V 46.619443 h 6.537076 v 3.638026 h 0.227378 q 0.397909,-0.947401 1.155832,-1.837962 0.75792,-0.909506 1.951649,-1.477947 1.193726,-0.587388 2.880103,-0.587388 2.235867,0 4.149622,1.174779 1.932699,1.174779 3.107478,3.58118 1.193726,2.406402 1.193726,6.12022 0,3.600128 -1.155829,6.025478 -1.136883,2.406402 -3.069585,3.638024 -1.913752,1.212675 -4.263308,1.212675 -2.425351,0 -3.884351,-1.136883 -1.44005,-1.155829 -2.065337,-2.59588 H 61.044897 V 75.723644 Z M 64.891351,62.952659 q 1.913753,0 2.918,-1.572686 1.023194,-1.572689 1.023194,-4.149622 0,-2.576936 -1.023194,-4.130675 -1.004247,-1.572688 -2.918,-1.572688 -1.894805,0 -2.955896,1.534792 -1.042143,1.534792 -1.042143,4.168571 0,2.59588 1.042143,4.168569 1.061091,1.553739 2.955896,1.553739 z"
         id="path2"
         style="font-weight:800;font-size:38.8056px;font-family:Inter;-inkscape-font-specification:'Inter Ultra-Bold';display:none;fill:#ffffff;stroke:#f472b6;stroke-width:0"
         aria-label="thp" />
      <path
         id="lpe_path-effect2"
         style="font-weight:800;font-size:38.8056px;font-family:Inter;-inkscape-font-specification:'Inter Ultra-Bold';fill:#ffffff;stroke:#f472b6;stroke-width:0"
         class="powerclip"
         d="M -4.9871546,-4.9877447 H 81.335912 V 81.335322 H -4.9871546 Z M 26.237336,46.619443 h -3.808557 v -5.04018 h -6.612868 v 5.04018 H 13.0116 v 4.907545 h 2.804311 v 10.383533 q 0,3.031686 1.74322,4.623321 1.74322,1.572689 5.115973,1.572689 0.928454,0 1.970596,-0.113689 1.042143,-0.113689 2.160079,-0.435806 l -0.852663,-4.812802 q -0.265273,0.05685 -0.890559,0.151585 -0.606337,0.07579 -0.947402,0.07579 -1.686376,0 -1.686376,-1.648482 v -9.796139 h 3.808557 z m 10.156152,9.095063 q 0,-1.856907 1.004247,-2.880104 1.004247,-1.04214 2.614832,-1.04214 1.629532,0 2.539037,1.023194 0.909508,1.004247 0.909508,2.785361 v 12.202544 h 6.612866 V 54.312352 q 0,-3.60013 -2.008492,-5.779154 -2.008494,-2.179026 -5.324401,-2.179026 -2.463247,0 -4.054882,1.212675 -1.572689,1.212673 -2.425351,3.259064 v -11.25514 h -6.48023 v 28.23259 h 6.612866 z m 18.03854,20.009138 h 6.612869 V 64.373765 h 0.151585 q 0.625287,1.440051 2.065337,2.59588 1.459,1.136883 3.884351,1.136883 2.349556,0 4.263308,-1.212675 1.932702,-1.231622 3.069585,-3.638024 1.155829,-2.42535 1.155829,-6.025478 0,-3.713818 -1.193726,-6.12022 -1.174779,-2.406401 -3.107478,-3.58118 -1.913755,-1.174779 -4.149622,-1.174779 -1.686377,0 -2.880103,0.587388 -1.193729,0.568441 -1.951649,1.477947 -0.757923,0.890561 -1.155832,1.837962 H 60.969104 V 46.619443 H 54.432028 Z M 64.891351,62.952659 q 1.913753,0 2.918,-1.572686 1.023194,-1.572689 1.023194,-4.149622 0,-2.576936 -1.023194,-4.130675 -1.004247,-1.572688 -2.918,-1.572688 -1.894805,0 -2.955896,1.534792 -1.042143,1.534792 -1.042143,4.168571 0,2.59588 1.042143,4.168569 1.061091,1.553739 2.955896,1.553739 z" />
    </clipPath>
  </defs>
  <g
     id="layer1">
    <rect
       style="display:none;fill:#1a1a1a;fill-opacity:1;stroke:#f472b6;stroke-width:0;stroke-dasharray:none;stroke-opacity:1"
       id="rect2"
       width="76.346939"
       height="76.400146"
       x="0.001250195"
       y="0.0017838299" />
    <path
       style="fill:#f472b6;fill-opacity:1;stroke:#f472b6;stroke-width:0;stroke-dasharray:none;stroke-opacity:1"
       id="rect1"
       width="76.323067"
       height="76.323067"
       x="0.01284539"
       y="0.012255264"
       rx="5.2916665"
       ry="5.2916665"
       clip-path="url(#clipPath2)"
       d="M 5.3045119,0.01225526 H 71.044246 c 2.931583,0 5.291666,2.36008324 5.291666,5.29166654 V 71.043655 c 0,2.931584 -2.360083,5.291667 -5.291666,5.291667 H 5.3045119 c -2.9315832,0 -5.29166651,-2.360083 -5.29166651,-5.291667 V 5.3039218 c 0,-2.9315833 2.36008331,-5.29166654 5.29166651,-5.29166654 z" />
  </g>
</svg>
